<svg id="sw-js-blob-svg" viewBox="0 0 100 100" xmlns="http://www.w3.org/2000/svg">
  <defs>
    <linearGradient id="sw-gradient" x1="0" x2="1" y1="1" y2="0">
      <stop id="stop1" stop-color="rgba(248, 117, 55, 1)" offset="0%"></stop>
      <stop id="stop2" stop-color="rgba(251, 168, 31, 1)" offset="100%"></stop>
    </linearGradient>
  </defs>
  <path fill="url(#sw-gradient)"
    d="M24.6,-27.7C31.9,-23.3,37.6,-15.5,37.6,-7.8C37.5,-0.1,31.8,7.5,26.6,14.5C21.5,21.4,17,27.9,10.2,32.2C3.4,36.5,-5.8,38.7,-12.9,36C-20.1,33.2,-25.3,25.4,-30.2,17.3C-35.2,9.1,-39.8,0.7,-39.1,-7.5C-38.4,-15.6,-32.3,-23.4,-24.9,-27.8C-17.5,-32.2,-8.7,-33.1,0,-33.1C8.7,-33.1,17.4,-32.1,24.6,-27.7Z"
    width="100%" height="100%" transform="translate(50 50)" stroke-width="0" style="transition: all 0.3s ease 0s;">
  </path>
</svg>